<?xml version="1.0" encoding="UTF-8" standalone="no"?>
<!DOCTYPE svg PUBLIC "-//W3C//DTD SVG 1.1//EN"
 "http://www.w3.org/Graphics/SVG/1.1/DTD/svg11.dtd">
<!-- Generated by graphviz version 9.0.0 (20230911.1827)
 -->
<!-- Title: G Pages: 1 -->
<svg width="754pt" height="952pt"
 viewBox="0.00 0.00 754.31 951.80" xmlns="http://www.w3.org/2000/svg" xmlns:xlink="http://www.w3.org/1999/xlink">
<g id="graph0" class="graph" transform="scale(1 1) rotate(0) translate(32.4 919.4)">
<title>G</title>
<polygon fill="#fafafa" stroke="none" points="-32.4,32.4 -32.4,-919.4 721.91,-919.4 721.91,32.4 -32.4,32.4"/>
<g id="clust1" class="cluster">
<title>cluster_inputs</title>
<path fill="#f8fbff" stroke="#9ab7d3" d="M20,-40C20,-40 155.92,-40 155.92,-40 161.92,-40 167.92,-46 167.92,-52 167.92,-52 167.92,-290 167.92,-290 167.92,-296 161.92,-302 155.92,-302 155.92,-302 20,-302 20,-302 14,-302 8,-296 8,-290 8,-290 8,-52 8,-52 8,-46 14,-40 20,-40"/>
<text text-anchor="middle" x="87.96" y="-286.6" font-family="Helvetica,sans-Serif" font-size="12.00">Market and State Inputs</text>
</g>
<g id="clust3" class="cluster">
<title>cluster_core</title>
<path fill="#eaf3ff" stroke="#3c7fc0" d="M269.17,-105C269.17,-105 395.09,-105 395.09,-105 401.09,-105 407.09,-111 407.09,-117 407.09,-117 407.09,-623 407.09,-623 407.09,-629 401.09,-635 395.09,-635 395.09,-635 269.17,-635 269.17,-635 263.17,-635 257.17,-629 257.17,-623 257.17,-623 257.17,-117 257.17,-117 257.17,-111 263.17,-105 269.17,-105"/>
<text text-anchor="middle" x="332.13" y="-619.6" font-family="Helvetica,sans-Serif" font-size="12.00">Signal Core</text>
</g>
<g id="clust5" class="cluster">
<title>cluster_controls</title>
<path fill="#fff8ee" stroke="#d8a545" d="M552.34,-255C552.34,-255 660.51,-255 660.51,-255 666.51,-255 672.51,-261 672.51,-267 672.51,-267 672.51,-867 672.51,-867 672.51,-873 666.51,-879 660.51,-879 660.51,-879 552.34,-879 552.34,-879 546.34,-879 540.34,-873 540.34,-867 540.34,-867 540.34,-267 540.34,-267 540.34,-261 546.34,-255 552.34,-255"/>
<text text-anchor="middle" x="606.42" y="-863.6" font-family="Helvetica,sans-Serif" font-size="12.00">Safety and Delivery</text>
</g>
<!-- pricing -->
<g id="node1" class="node">
<title>pricing</title>
<path fill="#eef4fb" stroke="#4c6a92" d="M124.92,-178C124.92,-178 51,-178 51,-178 45,-178 39,-172 39,-166 39,-166 39,-154 39,-154 39,-148 45,-142 51,-142 51,-142 124.92,-142 124.92,-142 130.92,-142 136.92,-148 136.92,-154 136.92,-154 136.92,-166 136.92,-166 136.92,-172 130.92,-178 124.92,-178"/>
<text text-anchor="middle" x="87.96" y="-155.72" font-family="Helvetica,sans-Serif" font-size="12.00" fill="#1a1a2e">Pricing Feed</text>
</g>
<!-- normalize -->
<g id="node4" class="node">
<title>normalize</title>
<path fill="#1168bd" stroke="#3c7fc0" d="M383.34,-149C383.34,-149 280.92,-149 280.92,-149 274.92,-149 268.92,-143 268.92,-137 268.92,-137 268.92,-125 268.92,-125 268.92,-119 274.92,-113 280.92,-113 280.92,-113 383.34,-113 383.34,-113 389.34,-113 395.34,-119 395.34,-125 395.34,-125 395.34,-137 395.34,-137 395.34,-143 389.34,-149 383.34,-149"/>
<text text-anchor="middle" x="332.13" y="-126.72" font-family="Helvetica,sans-Serif" font-size="12.00" fill="#ffffff">Normalize Inputs</text>
</g>
<!-- pricing&#45;&gt;normalize -->
<g id="edge1" class="edge">
<title>pricing&#45;&gt;normalize</title>
<path fill="none" stroke="#555555" stroke-width="1.8" d="M137.37,-145.5C137.37,-145.5 258.13,-145.5 258.13,-145.5"/>
<polygon fill="#555555" stroke="#555555" stroke-width="1.8" points="258.13,-148.3 266.13,-145.5 258.13,-142.7 258.13,-148.3"/>
<text text-anchor="middle" x="210.05" y="-172.25" font-family="Helvetica,sans-Serif" font-size="10.00" fill="#333333">ticks</text>
</g>
<!-- account -->
<g id="node2" class="node">
<title>account</title>
<path fill="#eef4fb" stroke="#4c6a92" d="M142.92,-84C142.92,-84 33,-84 33,-84 27,-84 21,-78 21,-72 21,-72 21,-60 21,-60 21,-54 27,-48 33,-48 33,-48 142.92,-48 142.92,-48 148.92,-48 154.92,-54 154.92,-60 154.92,-60 154.92,-72 154.92,-72 154.92,-78 148.92,-84 142.92,-84"/>
<text text-anchor="middle" x="87.96" y="-61.73" font-family="Helvetica,sans-Serif" font-size="12.00" fill="#1a1a2e">Account Snapshot</text>
</g>
<!-- account&#45;&gt;normalize -->
<g id="edge2" class="edge">
<title>account&#45;&gt;normalize</title>
<path fill="none" stroke="#555555" stroke-width="1.8" d="M146.51,-84.45C146.51,-102.57 146.51,-127.5 146.51,-127.5 146.51,-127.5 257.79,-127.5 257.79,-127.5"/>
<polygon fill="#555555" stroke="#555555" stroke-width="1.8" points="257.79,-130.3 265.79,-127.5 257.79,-124.7 257.79,-130.3"/>
<text text-anchor="middle" x="210.05" y="-96.25" font-family="Helvetica,sans-Serif" font-size="10.00" fill="#333333">positions</text>
</g>
<!-- news -->
<g id="node3" class="node">
<title>news</title>
<path fill="#eef4fb" stroke="#4c6a92" d="M124.92,-272C124.92,-272 51,-272 51,-272 45,-272 39,-266 39,-260 39,-260 39,-248 39,-248 39,-242 45,-236 51,-236 51,-236 124.92,-236 124.92,-236 130.92,-236 136.92,-242 136.92,-248 136.92,-248 136.92,-260 136.92,-260 136.92,-266 130.92,-272 124.92,-272"/>
<text text-anchor="middle" x="87.96" y="-249.72" font-family="Helvetica,sans-Serif" font-size="12.00" fill="#1a1a2e">News Signal</text>
</g>
<!-- news&#45;&gt;normalize -->
<g id="edge3" class="edge">
<title>news&#45;&gt;normalize</title>
<path fill="none" stroke="#555555" stroke-width="1.8" d="M137.18,-249.5C203.54,-249.5 313.51,-249.5 313.51,-249.5 313.51,-249.5 313.51,-159.98 313.51,-159.98"/>
<polygon fill="#555555" stroke="#555555" stroke-width="1.8" points="316.31,-159.98 313.51,-151.98 310.71,-159.98 316.31,-159.98"/>
<text text-anchor="middle" x="210.05" y="-253.25" font-family="Helvetica,sans-Serif" font-size="10.00" fill="#333333">context</text>
</g>
<!-- features -->
<g id="node5" class="node">
<title>features</title>
<path fill="#1168bd" stroke="#3c7fc0" d="M378.46,-301C378.46,-301 285.8,-301 285.8,-301 279.8,-301 273.8,-295 273.8,-289 273.8,-289 273.8,-277 273.8,-277 273.8,-271 279.8,-265 285.8,-265 285.8,-265 378.46,-265 378.46,-265 384.46,-265 390.46,-271 390.46,-277 390.46,-277 390.46,-289 390.46,-289 390.46,-295 384.46,-301 378.46,-301"/>
<text text-anchor="middle" x="332.13" y="-278.73" font-family="Helvetica,sans-Serif" font-size="12.00" fill="#ffffff">Feature Builder</text>
</g>
<!-- normalize&#45;&gt;features -->
<g id="edge4" class="edge">
<title>normalize&#45;&gt;features</title>
<path fill="none" stroke="#555555" stroke-width="1.8" d="M352.51,-149.33C352.51,-149.33 352.51,-253.88 352.51,-253.88"/>
<polygon fill="#555555" stroke="#555555" stroke-width="1.8" points="349.71,-253.88 352.51,-261.88 355.31,-253.88 349.71,-253.88"/>
</g>
<!-- ranker -->
<g id="node6" class="node">
<title>ranker</title>
<path fill="#1168bd" stroke="#3c7fc0" d="M374.34,-453C374.34,-453 289.92,-453 289.92,-453 283.92,-453 277.92,-447 277.92,-441 277.92,-441 277.92,-429 277.92,-429 277.92,-423 283.92,-417 289.92,-417 289.92,-417 374.34,-417 374.34,-417 380.34,-417 386.34,-423 386.34,-429 386.34,-429 386.34,-441 386.34,-441 386.34,-447 380.34,-453 374.34,-453"/>
<text text-anchor="middle" x="332.13" y="-430.73" font-family="Helvetica,sans-Serif" font-size="12.00" fill="#ffffff">Signal Ranker</text>
</g>
<!-- features&#45;&gt;ranker -->
<g id="edge5" class="edge">
<title>features&#45;&gt;ranker</title>
<path fill="none" stroke="#555555" stroke-width="1.8" d="M332.51,-301.33C332.51,-301.33 332.51,-405.88 332.51,-405.88"/>
<polygon fill="#555555" stroke="#555555" stroke-width="1.8" points="329.71,-405.88 332.51,-413.88 335.31,-405.88 329.71,-405.88"/>
</g>
<!-- planner -->
<g id="node7" class="node">
<title>planner</title>
<path fill="#1168bd" stroke="#3c7fc0" d="M387.09,-605C387.09,-605 277.17,-605 277.17,-605 271.17,-605 265.17,-599 265.17,-593 265.17,-593 265.17,-581 265.17,-581 265.17,-575 271.17,-569 277.17,-569 277.17,-569 387.09,-569 387.09,-569 393.09,-569 399.09,-575 399.09,-581 399.09,-581 399.09,-593 399.09,-593 399.09,-599 393.09,-605 387.09,-605"/>
<text text-anchor="middle" x="332.13" y="-582.73" font-family="Helvetica,sans-Serif" font-size="12.00" fill="#ffffff">Execution Planner</text>
</g>
<!-- ranker&#45;&gt;planner -->
<g id="edge6" class="edge">
<title>ranker&#45;&gt;planner</title>
<path fill="none" stroke="#555555" stroke-width="1.8" d="M332.51,-453.33C332.51,-453.33 332.51,-557.88 332.51,-557.88"/>
<polygon fill="#555555" stroke="#555555" stroke-width="1.8" points="329.71,-557.88 332.51,-565.88 335.31,-557.88 329.71,-557.88"/>
</g>
<!-- risk -->
<g id="node8" class="node">
<title>risk</title>
<path fill="#f3e5f5" stroke="#7e57c2" d="M635.01,-545C635.01,-545 576.84,-545 576.84,-545 570.84,-545 564.84,-539 564.84,-533 564.84,-533 564.84,-521 564.84,-521 564.84,-515 570.84,-509 576.84,-509 576.84,-509 635.01,-509 635.01,-509 641.01,-509 647.01,-515 647.01,-521 647.01,-521 647.01,-533 647.01,-533 647.01,-539 641.01,-545 635.01,-545"/>
<text text-anchor="middle" x="605.92" y="-522.73" font-family="Helvetica,sans-Serif" font-size="12.00" fill="#1a1a2e">Risk Gate</text>
</g>
<!-- planner&#45;&gt;risk -->
<g id="edge7" class="edge">
<title>planner&#45;&gt;risk</title>
<path fill="none" stroke="#555555" stroke-width="1.8" d="M399.52,-587C476.67,-587 592.51,-587 592.51,-587 592.51,-587 592.51,-556.05 592.51,-556.05"/>
<polygon fill="#555555" stroke="#555555" stroke-width="1.8" points="595.31,-556.05 592.51,-548.05 589.71,-556.05 595.31,-556.05"/>
<text text-anchor="middle" x="473.71" y="-533.25" font-family="Helvetica,sans-Serif" font-size="10.00" fill="#333333">proposed actions</text>
</g>
<!-- audit -->
<g id="node11" class="node">
<title>audit</title>
<path fill="#fff3e0" stroke="#f5a623" d="M636.13,-451C636.13,-451 575.71,-451 575.71,-451 569.71,-451 563.71,-445 563.71,-439 563.71,-439 563.71,-427 563.71,-427 563.71,-421 569.71,-415 575.71,-415 575.71,-415 636.13,-415 636.13,-415 642.13,-415 648.13,-421 648.13,-427 648.13,-427 648.13,-439 648.13,-439 648.13,-445 642.13,-451 636.13,-451"/>
<text text-anchor="middle" x="605.92" y="-428.73" font-family="Helvetica,sans-Serif" font-size="12.00" fill="#1a1a2e">Audit Trail</text>
</g>
<!-- planner&#45;&gt;audit -->
<g id="edge13" class="edge">
<title>planner&#45;&gt;audit</title>
<path fill="none" stroke="#555555" stroke-width="1.8" d="M399.57,-578C436.37,-578 474.51,-578 474.51,-578 474.51,-578 474.51,-434 474.51,-434 474.51,-434 552.53,-434 552.53,-434"/>
<polygon fill="#555555" stroke="#555555" stroke-width="1.8" points="552.53,-436.8 560.53,-434 552.53,-431.2 552.53,-436.8"/>
<text text-anchor="middle" x="473.71" y="-446.25" font-family="Helvetica,sans-Serif" font-size="10.00" fill="#333333">plan trace</text>
</g>
<!-- review -->
<g id="node9" class="node">
<title>review</title>
<path fill="#08427b" stroke="#073b6f" d="M651.51,-697C651.51,-697 560.34,-697 560.34,-697 554.34,-697 548.34,-691 548.34,-685 548.34,-685 548.34,-673 548.34,-673 548.34,-667 554.34,-661 560.34,-661 560.34,-661 651.51,-661 651.51,-661 657.51,-661 663.51,-667 663.51,-673 663.51,-673 663.51,-685 663.51,-685 663.51,-691 657.51,-697 651.51,-697"/>
<text text-anchor="middle" x="605.92" y="-674.73" font-family="Helvetica,sans-Serif" font-size="12.00" fill="#ffffff">Human Review</text>
</g>
<!-- risk&#45;&gt;review -->
<g id="edge9" class="edge">
<title>risk&#45;&gt;review</title>
<path fill="none" stroke="#555555" stroke-width="1.8" d="M620.51,-545.33C620.51,-545.33 620.51,-649.88 620.51,-649.88"/>
<polygon fill="#555555" stroke="#555555" stroke-width="1.8" points="617.71,-649.88 620.51,-657.88 623.31,-649.88 617.71,-649.88"/>
</g>
<!-- broker -->
<g id="node10" class="node">
<title>broker</title>
<path fill="#fff3e0" stroke="#f5a623" d="M648.51,-849C648.51,-849 563.34,-849 563.34,-849 557.34,-849 551.34,-843 551.34,-837 551.34,-837 551.34,-825 551.34,-825 551.34,-819 557.34,-813 563.34,-813 563.34,-813 648.51,-813 648.51,-813 654.51,-813 660.51,-819 660.51,-825 660.51,-825 660.51,-837 660.51,-837 660.51,-843 654.51,-849 648.51,-849"/>
<text text-anchor="middle" x="605.92" y="-826.73" font-family="Helvetica,sans-Serif" font-size="12.00" fill="#1a1a2e">Broker Router</text>
</g>
<!-- risk&#45;&gt;broker -->
<g id="edge8" class="edge">
<title>risk&#45;&gt;broker</title>
<path fill="none" stroke="#555555" stroke-width="1.8" d="M647.34,-527C660.88,-527 672.51,-527 672.51,-527 672.51,-527 672.51,-822 672.51,-822 672.51,-822 671.35,-822 671.35,-822"/>
<polygon fill="#555555" stroke="#555555" stroke-width="1.8" points="671.64,-819.2 663.64,-822 671.64,-824.8 671.64,-819.2"/>
<text text-anchor="middle" x="473.71" y="-742.88" font-family="Helvetica,sans-Serif" font-size="10.00" fill="#333333">approved</text>
</g>
<!-- review&#45;&gt;planner -->
<g id="edge11" class="edge">
<title>review&#45;&gt;planner</title>
<path fill="none" stroke="#7e57c2" stroke-width="1.8" d="M556.51,-660.58C556.51,-636.13 556.51,-596 556.51,-596 556.51,-596 410.18,-596 410.18,-596"/>
<polygon fill="#7e57c2" stroke="#7e57c2" stroke-width="1.8" points="410.18,-593.2 402.18,-596 410.18,-598.8 410.18,-593.2"/>
<text text-anchor="middle" x="473.71" y="-647.25" font-family="Helvetica,sans-Serif" font-size="10.00" fill="#7e57c2">revise</text>
</g>
<!-- review&#45;&gt;broker -->
<g id="edge10" class="edge">
<title>review&#45;&gt;broker</title>
<path fill="none" stroke="#555555" stroke-width="1.8" d="M606.51,-697.33C606.51,-697.33 606.51,-801.88 606.51,-801.88"/>
<polygon fill="#555555" stroke="#555555" stroke-width="1.8" points="603.71,-801.88 606.51,-809.88 609.31,-801.88 603.71,-801.88"/>
</g>
<!-- broker&#45;&gt;audit -->
<g id="edge12" class="edge">
<title>broker&#45;&gt;audit</title>
<path fill="none" stroke="#555555" stroke-width="1.8" d="M660.91,-831C672.09,-831 680.51,-831 680.51,-831 680.51,-831 680.51,-433 680.51,-433 680.51,-433 659.17,-433 659.17,-433"/>
<polygon fill="#555555" stroke="#555555" stroke-width="1.8" points="659.17,-430.2 651.17,-433 659.17,-435.8 659.17,-430.2"/>
<text text-anchor="middle" x="473.71" y="-718.88" font-family="Helvetica,sans-Serif" font-size="10.00" fill="#333333">execution trace</text>
</g>
<!-- alerts -->
<g id="node12" class="node">
<title>alerts</title>
<path fill="#f3e5f5" stroke="#7e57c2" d="M624.13,-299C624.13,-299 587.71,-299 587.71,-299 581.71,-299 575.71,-293 575.71,-287 575.71,-287 575.71,-275 575.71,-275 575.71,-269 581.71,-263 587.71,-263 587.71,-263 624.13,-263 624.13,-263 630.13,-263 636.13,-269 636.13,-275 636.13,-275 636.13,-287 636.13,-287 636.13,-293 630.13,-299 624.13,-299"/>
<text text-anchor="middle" x="605.92" y="-276.73" font-family="Helvetica,sans-Serif" font-size="12.00" fill="#1a1a2e">Alerts</text>
</g>
<!-- broker&#45;&gt;alerts -->
<g id="edge14" class="edge">
<title>broker&#45;&gt;alerts</title>
<path fill="none" stroke="#555555" stroke-width="1.8" d="M660.74,-840C676.5,-840 689.51,-840 689.51,-840 689.51,-840 689.51,-281 689.51,-281 689.51,-281 647.3,-281 647.3,-281"/>
<polygon fill="#555555" stroke="#555555" stroke-width="1.8" points="647.3,-278.2 639.3,-281 647.3,-283.8 647.3,-278.2"/>
<text text-anchor="middle" x="473.71" y="-688.88" font-family="Helvetica,sans-Serif" font-size="10.00" fill="#333333">fills and rejects</text>
</g>
<!-- audit&#45;&gt;alerts -->
<g id="edge15" class="edge">
<title>audit&#45;&gt;alerts</title>
<path fill="none" stroke="#555555" stroke-width="1.8" d="M606.51,-414.67C606.51,-414.67 606.51,-310.12 606.51,-310.12"/>
<polygon fill="#555555" stroke="#555555" stroke-width="1.8" points="609.31,-310.12 606.51,-302.12 603.71,-310.12 609.31,-310.12"/>
</g>
<!-- alerts&#45;&gt;account -->
<g id="edge16" class="edge">
<title>alerts&#45;&gt;account</title>
<path fill="none" stroke="#7e57c2" stroke-width="1.8" d="M606.51,-262.67C606.51,-210.68 606.51,-66 606.51,-66 606.51,-66 165.94,-66 165.94,-66"/>
<polygon fill="#7e57c2" stroke="#7e57c2" stroke-width="1.8" points="165.94,-63.2 157.94,-66 165.94,-68.8 165.94,-63.2"/>
<text text-anchor="middle" x="332.13" y="-3.25" font-family="Helvetica,sans-Serif" font-size="10.00" fill="#7e57c2">state refresh</text>
</g>
</g>
</svg>
