<?plantuml 1.2026.1?><svg xmlns="http://www.w3.org/2000/svg" xmlns:xlink="http://www.w3.org/1999/xlink" contentStyleType="text/css" data-diagram-type="SEQUENCE" height="901px" preserveAspectRatio="none" style="width:1146px;height:901px;background:#FAFAFA;" version="1.1" viewBox="0 0 1146 901" width="1146px" zoomAndPan="magnify"><title>AI Request Sequence</title><defs/><g><rect fill="#FAFAFA" height="901" style="stroke:none;stroke-width:1;" width="1146" x="0" y="0"/><rect fill="none" height="28.625" style="stroke:#555555;stroke-width:1;" width="201.3125" x="473.6417" y="10"/><text fill="#1A1A2E" font-family="Arial" font-size="16" font-weight="bold" lengthAdjust="spacing" textLength="191.3125" x="478.6417" y="29.8516">AI Request Sequence</text><rect fill="#F8FBFF" height="587.9531" style="stroke:#A0AEC0;stroke-width:1.5;" width="1129.5959" x="10" y="217.1719"/><rect fill="#F8FBFF" height="490.2734" style="stroke:none;stroke-width:1;" width="1129.5959" x="10" y="314.8516"/><rect fill="#F8FBFF" height="83.875" style="stroke:#A0AEC0;stroke-width:1.5;" width="347.7244" x="710.8252" y="446.2031"/><g class="participant-lifeline" data-entity-uid="part1" data-qualified-name="Trader" id="part1-lifeline"><g><title>Trader</title><rect fill="#000000" fill-opacity="0.00000" height="702.3672" width="8" x="40.4233" y="119.7578"/><line style="stroke:#555555;stroke-width:0.5;stroke-dasharray:5,5;" x1="44" x2="44" y1="119.7578" y2="822.125"/></g></g><g class="participant-lifeline" data-entity-uid="part2" data-qualified-name="Web" id="part2-lifeline"><g><title>Web App</title><rect fill="#000000" fill-opacity="0.00000" height="702.3672" width="8" x="215.1738" y="119.7578"/><line style="stroke:#555555;stroke-width:0.5;stroke-dasharray:5,5;" x1="218.8572" x2="218.8572" y1="119.7578" y2="822.125"/></g></g><g class="participant-lifeline" data-entity-uid="part3" data-qualified-name="API" id="part3-lifeline"><g><title>API Gateway</title><rect fill="#000000" fill-opacity="0.00000" height="702.3672" width="8" x="364.5244" y="119.7578"/><line style="stroke:#555555;stroke-width:0.5;stroke-dasharray:5,5;" x1="368.4614" x2="368.4614" y1="119.7578" y2="822.125"/></g></g><g class="participant-lifeline" data-entity-uid="part4" data-qualified-name="Cache" id="part4-lifeline"><g><title>Cache</title><rect fill="#000000" fill-opacity="0.00000" height="702.3672" width="8" x="544.603" y="119.7578"/><line style="stroke:#555555;stroke-width:0.5;stroke-dasharray:5,5;" x1="548.3889" x2="548.3889" y1="119.7578" y2="822.125"/></g></g><g class="participant-lifeline" data-entity-uid="part5" data-qualified-name="Queue" id="part5-lifeline"><g><title>Job Queue</title><rect fill="#000000" fill-opacity="0.00000" height="702.3672" width="8" x="621.2566" y="119.7578"/><line style="stroke:#555555;stroke-width:0.5;stroke-dasharray:5,5;" x1="624.8171" x2="624.8171" y1="119.7578" y2="822.125"/></g></g><g class="participant-lifeline" data-entity-uid="part6" data-qualified-name="Worker" id="part6-lifeline"><g><title>Worker Pool</title><rect fill="#000000" fill-opacity="0.00000" height="702.3672" width="8" x="763.0823" y="119.7578"/><line style="stroke:#555555;stroke-width:0.5;stroke-dasharray:5,5;" x1="766.8252" x2="766.8252" y1="119.7578" y2="822.125"/></g></g><g class="participant-lifeline" data-entity-uid="part7" data-qualified-name="Model" id="part7-lifeline"><g><title>Vertex AI</title><rect fill="#000000" fill-opacity="0.00000" height="702.3672" width="8" x="924.6145" y="119.7578"/><line style="stroke:#555555;stroke-width:0.5;stroke-dasharray:5,5;" x1="927.6726" x2="927.6726" y1="119.7578" y2="822.125"/></g></g><g class="participant-lifeline" data-entity-uid="part8" data-qualified-name="DB" id="part8-lifeline"><g><title>Cloud SQL</title><rect fill="#000000" fill-opacity="0.00000" height="702.3672" width="8" x="1008.053" y="119.7578"/><line style="stroke:#555555;stroke-width:0.5;stroke-dasharray:5,5;" x1="1011.5564" x2="1011.5564" y1="119.7578" y2="822.125"/></g></g><g class="participant-lifeline" data-entity-uid="part9" data-qualified-name="Alert" id="part9-lifeline"><g><title>Alert Bot</title><rect fill="#000000" fill-opacity="0.00000" height="702.3672" width="8" x="1090.0728" y="119.7578"/><line style="stroke:#555555;stroke-width:0.5;stroke-dasharray:5,5;" x1="1093.5496" x2="1093.5496" y1="119.7578" y2="822.125"/></g></g><g class="participant participant-head" data-entity-uid="part1" data-qualified-name="Trader" id="part1-head"><text fill="#FFFFFF" font-family="Arial" font-size="13" lengthAdjust="spacing" textLength="42.8467" x="20" y="116.6919">Trader</text><ellipse cx="44.4233" cy="53.125" fill="#08427B" rx="8" ry="8" style="stroke:#4A90D9;stroke-width:0.5;"/><path d="M44.4233,61.125 L44.4233,88.125 M31.4233,69.125 L57.4233,69.125 M44.4233,88.125 L31.4233,103.125 M44.4233,88.125 L57.4233,103.125" fill="none" style="stroke:#4A90D9;stroke-width:0.5;"/></g><g class="participant participant-tail" data-entity-uid="part1" data-qualified-name="Trader" id="part1-tail"><text fill="#FFFFFF" font-family="Arial" font-size="13" lengthAdjust="spacing" textLength="42.8467" x="20" y="833.1919">Trader</text><ellipse cx="44.4233" cy="844.7578" fill="#08427B" rx="8" ry="8" style="stroke:#4A90D9;stroke-width:0.5;"/><path d="M44.4233,852.7578 L44.4233,879.7578 M31.4233,860.7578 L57.4233,860.7578 M44.4233,879.7578 L31.4233,894.7578 M44.4233,879.7578 L57.4233,894.7578" fill="none" style="stroke:#4A90D9;stroke-width:0.5;"/></g><g class="participant participant-head" data-entity-uid="part2" data-qualified-name="Web" id="part2-head"><rect fill="#EEF4FB" height="29.1328" rx="2.5" ry="2.5" style="stroke:#4A90D9;stroke-width:0.5;" width="72.6333" x="182.8572" y="89.625"/><text fill="#1A1A2E" font-family="Arial" font-size="13" lengthAdjust="spacing" textLength="58.6333" x="189.8572" y="108.6919">Web App</text></g><g class="participant participant-tail" data-entity-uid="part2" data-qualified-name="Web" id="part2-tail"><rect fill="#EEF4FB" height="29.1328" rx="2.5" ry="2.5" style="stroke:#4A90D9;stroke-width:0.5;" width="72.6333" x="182.8572" y="821.125"/><text fill="#1A1A2E" font-family="Arial" font-size="13" lengthAdjust="spacing" textLength="58.6333" x="189.8572" y="840.1919">Web App</text></g><g class="participant participant-head" data-entity-uid="part3" data-qualified-name="API" id="part3-head"><rect fill="#EEF4FB" height="29.1328" rx="2.5" ry="2.5" style="stroke:#4A90D9;stroke-width:0.5;" width="96.126" x="320.4614" y="89.625"/><text fill="#1A1A2E" font-family="Arial" font-size="13" lengthAdjust="spacing" textLength="82.126" x="327.4614" y="108.6919">API Gateway</text></g><g class="participant participant-tail" data-entity-uid="part3" data-qualified-name="API" id="part3-tail"><rect fill="#EEF4FB" height="29.1328" rx="2.5" ry="2.5" style="stroke:#4A90D9;stroke-width:0.5;" width="96.126" x="320.4614" y="821.125"/><text fill="#1A1A2E" font-family="Arial" font-size="13" lengthAdjust="spacing" textLength="82.126" x="327.4614" y="840.1919">API Gateway</text></g><g class="participant participant-head" data-entity-uid="part4" data-qualified-name="Cache" id="part4-head"><text fill="#1A1A2E" font-family="Arial" font-size="13" lengthAdjust="spacing" textLength="40.4282" x="525.3889" y="116.6919">Cache</text><path d="M530.603,68.625 C530.603,58.625 548.603,58.625 548.603,58.625 C548.603,58.625 566.603,58.625 566.603,68.625 L566.603,94.625 C566.603,104.625 548.603,104.625 548.603,104.625 C548.603,104.625 530.603,104.625 530.603,94.625 L530.603,68.625" fill="#FFF3E0" style="stroke:#F5A623;stroke-width:0.5;"/><path d="M530.603,68.625 C530.603,78.625 548.603,78.625 548.603,78.625 C548.603,78.625 566.603,78.625 566.603,68.625" fill="none" style="stroke:#F5A623;stroke-width:0.5;"/></g><g class="participant participant-tail" data-entity-uid="part4" data-qualified-name="Cache" id="part4-tail"><text fill="#1A1A2E" font-family="Arial" font-size="13" lengthAdjust="spacing" textLength="40.4282" x="525.3889" y="833.1919">Cache</text><path d="M530.603,846.2578 C530.603,836.2578 548.603,836.2578 548.603,836.2578 C548.603,836.2578 566.603,836.2578 566.603,846.2578 L566.603,872.2578 C566.603,882.2578 548.603,882.2578 548.603,882.2578 C548.603,882.2578 530.603,882.2578 530.603,872.2578 L530.603,846.2578" fill="#FFF3E0" style="stroke:#F5A623;stroke-width:0.5;"/><path d="M530.603,846.2578 C530.603,856.2578 548.603,856.2578 548.603,856.2578 C548.603,856.2578 566.603,856.2578 566.603,846.2578" fill="none" style="stroke:#F5A623;stroke-width:0.5;"/></g><g class="participant participant-head" data-entity-uid="part5" data-qualified-name="Queue" id="part5-head"><path d="M586.8171,94.625 L663.696,94.625 C668.696,94.625 668.696,107.1914 668.696,107.1914 C668.696,107.1914 668.696,119.7578 663.696,119.7578 L586.8171,119.7578 C581.8171,119.7578 581.8171,107.1914 581.8171,107.1914 C581.8171,107.1914 581.8171,94.625 586.8171,94.625" fill="#F3E5F5" style="stroke:#7E57C2;stroke-width:0.5;"/><path d="M663.696,94.625 C658.696,94.625 658.696,107.1914 658.696,107.1914 C658.696,119.7578 663.696,119.7578 663.696,119.7578" fill="none" style="stroke:#7E57C2;stroke-width:0.5;"/><text fill="#1A1A2E" font-family="Arial" font-size="13" lengthAdjust="spacing" textLength="66.8789" x="586.8171" y="111.6919">Job Queue</text></g><g class="participant participant-tail" data-entity-uid="part5" data-qualified-name="Queue" id="part5-tail"><path d="M586.8171,821.125 L663.696,821.125 C668.696,821.125 668.696,833.6914 668.696,833.6914 C668.696,833.6914 668.696,846.2578 663.696,846.2578 L586.8171,846.2578 C581.8171,846.2578 581.8171,833.6914 581.8171,833.6914 C581.8171,833.6914 581.8171,821.125 586.8171,821.125" fill="#F3E5F5" style="stroke:#7E57C2;stroke-width:0.5;"/><path d="M663.696,821.125 C658.696,821.125 658.696,833.6914 658.696,833.6914 C658.696,846.2578 663.696,846.2578 663.696,846.2578" fill="none" style="stroke:#7E57C2;stroke-width:0.5;"/><text fill="#1A1A2E" font-family="Arial" font-size="13" lengthAdjust="spacing" textLength="66.8789" x="586.8171" y="838.1919">Job Queue</text></g><g class="participant participant-head" data-entity-uid="part6" data-qualified-name="Worker" id="part6-head"><rect fill="#EEF4FB" height="29.1328" rx="2.5" ry="2.5" style="stroke:#4A90D9;stroke-width:0.5;" width="92.5142" x="720.8252" y="89.625"/><text fill="#1A1A2E" font-family="Arial" font-size="13" lengthAdjust="spacing" textLength="78.5142" x="727.8252" y="108.6919">Worker Pool</text></g><g class="participant participant-tail" data-entity-uid="part6" data-qualified-name="Worker" id="part6-tail"><rect fill="#EEF4FB" height="29.1328" rx="2.5" ry="2.5" style="stroke:#4A90D9;stroke-width:0.5;" width="92.5142" x="720.8252" y="821.125"/><text fill="#1A1A2E" font-family="Arial" font-size="13" lengthAdjust="spacing" textLength="78.5142" x="727.8252" y="840.1919">Worker Pool</text></g><g class="participant participant-head" data-entity-uid="part7" data-qualified-name="Model" id="part7-head"><rect fill="#EEF4FB" height="29.1328" rx="2.5" ry="2.5" style="stroke:#4A90D9;stroke-width:0.5;" width="73.8838" x="891.6726" y="89.625"/><text fill="#1A1A2E" font-family="Arial" font-size="13" lengthAdjust="spacing" textLength="59.8838" x="898.6726" y="108.6919">Vertex AI</text></g><g class="participant participant-tail" data-entity-uid="part7" data-qualified-name="Model" id="part7-tail"><rect fill="#EEF4FB" height="29.1328" rx="2.5" ry="2.5" style="stroke:#4A90D9;stroke-width:0.5;" width="73.8838" x="891.6726" y="821.125"/><text fill="#1A1A2E" font-family="Arial" font-size="13" lengthAdjust="spacing" textLength="59.8838" x="898.6726" y="840.1919">Vertex AI</text></g><g class="participant participant-head" data-entity-uid="part8" data-qualified-name="DB" id="part8-head"><text fill="#1A1A2E" font-family="Arial" font-size="13" lengthAdjust="spacing" textLength="66.9932" x="975.5564" y="116.6919">Cloud SQL</text><path d="M994.053,68.625 C994.053,58.625 1012.053,58.625 1012.053,58.625 C1012.053,58.625 1030.053,58.625 1030.053,68.625 L1030.053,94.625 C1030.053,104.625 1012.053,104.625 1012.053,104.625 C1012.053,104.625 994.053,104.625 994.053,94.625 L994.053,68.625" fill="#FFF3E0" style="stroke:#F5A623;stroke-width:0.5;"/><path d="M994.053,68.625 C994.053,78.625 1012.053,78.625 1012.053,78.625 C1012.053,78.625 1030.053,78.625 1030.053,68.625" fill="none" style="stroke:#F5A623;stroke-width:0.5;"/></g><g class="participant participant-tail" data-entity-uid="part8" data-qualified-name="DB" id="part8-tail"><text fill="#1A1A2E" font-family="Arial" font-size="13" lengthAdjust="spacing" textLength="66.9932" x="975.5564" y="833.1919">Cloud SQL</text><path d="M994.053,846.2578 C994.053,836.2578 1012.053,836.2578 1012.053,836.2578 C1012.053,836.2578 1030.053,836.2578 1030.053,846.2578 L1030.053,872.2578 C1030.053,882.2578 1012.053,882.2578 1012.053,882.2578 C1012.053,882.2578 994.053,882.2578 994.053,872.2578 L994.053,846.2578" fill="#FFF3E0" style="stroke:#F5A623;stroke-width:0.5;"/><path d="M994.053,846.2578 C994.053,856.2578 1012.053,856.2578 1012.053,856.2578 C1012.053,856.2578 1030.053,856.2578 1030.053,846.2578" fill="none" style="stroke:#F5A623;stroke-width:0.5;"/></g><g class="participant participant-head" data-entity-uid="part9" data-qualified-name="Alert" id="part9-head"><rect fill="#EEF4FB" height="29.1328" rx="2.5" ry="2.5" style="stroke:#4A90D9;stroke-width:0.5;" width="71.0464" x="1058.5496" y="89.625"/><text fill="#1A1A2E" font-family="Arial" font-size="13" lengthAdjust="spacing" textLength="57.0464" x="1065.5496" y="108.6919">Alert Bot</text></g><g class="participant participant-tail" data-entity-uid="part9" data-qualified-name="Alert" id="part9-tail"><rect fill="#EEF4FB" height="29.1328" rx="2.5" ry="2.5" style="stroke:#4A90D9;stroke-width:0.5;" width="71.0464" x="1058.5496" y="821.125"/><text fill="#1A1A2E" font-family="Arial" font-size="13" lengthAdjust="spacing" textLength="57.0464" x="1065.5496" y="840.1919">Alert Bot</text></g><g class="message" data-entity-1="part1" data-entity-2="part2" id="msg1"><polygon fill="#4A90D9" points="207.1738,144.5625,217.1738,148.5625,207.1738,152.5625,211.1738,148.5625" style="stroke:#4A90D9;stroke-width:1;"/><line style="stroke:#4A90D9;stroke-width:1;" x1="44.4233" x2="213.1738" y1="148.5625" y2="148.5625"/><text fill="#333333" font-family="Arial" font-size="11" lengthAdjust="spacing" textLength="150.7505" x="51.4233" y="143.9683">Submit scenario + symbols</text></g><g class="message" data-entity-1="part2" data-entity-2="part3" id="msg2"><polygon fill="#4A90D9" points="356.5244,171.3672,366.5244,175.3672,356.5244,179.3672,360.5244,175.3672" style="stroke:#4A90D9;stroke-width:1;"/><line style="stroke:#4A90D9;stroke-width:1;" x1="219.1738" x2="362.5244" y1="175.3672" y2="175.3672"/><text fill="#333333" font-family="Arial" font-size="11" lengthAdjust="spacing" textLength="114.6997" x="226.1738" y="170.7729">POST /v1/ai/requests</text></g><g class="message" data-entity-1="part3" data-entity-2="part4" id="msg3"><polygon fill="#4A90D9" points="536.603,198.1719,546.603,202.1719,536.603,206.1719,540.603,202.1719" style="stroke:#4A90D9;stroke-width:1;"/><line style="stroke:#4A90D9;stroke-width:1;" x1="368.5244" x2="542.603" y1="202.1719" y2="202.1719"/><text fill="#333333" font-family="Arial" font-size="11" lengthAdjust="spacing" textLength="122.0259" x="375.5244" y="197.5776">Lookup recent answer</text></g><path d="M10,217.1719 L74.4429,217.1719 L74.4429,224.3047 L64.4429,234.3047 L10,234.3047 L10,217.1719" fill="#FAFAFA" style="stroke:#555555;stroke-width:1.5;"/><rect fill="none" height="587.9531" style="stroke:#A0AEC0;stroke-width:1.5;" width="1129.5959" x="10" y="217.1719"/><text fill="#000000" font-family="Arial" font-size="13" font-weight="bold" lengthAdjust="spacing" textLength="19.4429" x="25" y="230.2388">alt</text><text fill="#1A1A2E" font-family="Arial" font-size="13" font-weight="bold" lengthAdjust="spacing" textLength="239.8081" x="89.4429" y="231.2388">[cached recommendation exists]</text><g class="message" data-entity-1="part4" data-entity-2="part3" id="msg4"><polygon fill="#4A90D9" points="379.5244,249.2422,369.5244,253.2422,379.5244,257.2422,375.5244,253.2422" style="stroke:#4A90D9;stroke-width:1;"/><line style="stroke:#4A90D9;stroke-width:1;stroke-dasharray:2,2;" x1="373.5244" x2="547.603" y1="253.2422" y2="253.2422"/><text fill="#333333" font-family="Arial" font-size="11" lengthAdjust="spacing" textLength="156.0786" x="385.5244" y="248.6479">Warm response + metadata</text></g><g class="message" data-entity-1="part3" data-entity-2="part2" id="msg5"><polygon fill="#4A90D9" points="230.1738,276.0469,220.1738,280.0469,230.1738,284.0469,226.1738,280.0469" style="stroke:#4A90D9;stroke-width:1;"/><line style="stroke:#4A90D9;stroke-width:1;stroke-dasharray:2,2;" x1="224.1738" x2="367.5244" y1="280.0469" y2="280.0469"/><text fill="#333333" font-family="Arial" font-size="11" lengthAdjust="spacing" textLength="123.2075" x="236.1738" y="275.4526">Return result instantly</text></g><g class="message" data-entity-1="part2" data-entity-2="part1" id="msg6"><polygon fill="#4A90D9" points="55.4233,302.8516,45.4233,306.8516,55.4233,310.8516,51.4233,306.8516" style="stroke:#4A90D9;stroke-width:1;"/><line style="stroke:#4A90D9;stroke-width:1;stroke-dasharray:2,2;" x1="49.4233" x2="218.1738" y1="306.8516" y2="306.8516"/><text fill="#333333" font-family="Arial" font-size="11" lengthAdjust="spacing" textLength="137.1831" x="61.4233" y="302.2573">Render recommendation</text></g><line style="stroke:#A0AEC0;stroke-width:1;stroke-dasharray:2,2;" x1="10" x2="1139.5959" y1="315.8516" y2="315.8516"/><text fill="#1A1A2E" font-family="Arial" font-size="13" font-weight="bold" lengthAdjust="spacing" textLength="139.3438" x="15" y="327.9185">[needs recompute]</text><g class="message" data-entity-1="part4" data-entity-2="part3" id="msg7"><polygon fill="#4A90D9" points="379.5244,346.7891,369.5244,350.7891,379.5244,354.7891,375.5244,350.7891" style="stroke:#4A90D9;stroke-width:1;"/><line style="stroke:#4A90D9;stroke-width:1;stroke-dasharray:2,2;" x1="373.5244" x2="547.603" y1="350.7891" y2="350.7891"/><text fill="#333333" font-family="Arial" font-size="11" lengthAdjust="spacing" textLength="62.9385" x="385.5244" y="346.1948">Cache miss</text></g><g class="message" data-entity-1="part3" data-entity-2="part8" id="msg8"><polygon fill="#4A90D9" points="1000.053,373.5938,1010.053,377.5938,1000.053,381.5938,1004.053,377.5938" style="stroke:#4A90D9;stroke-width:1;"/><line style="stroke:#4A90D9;stroke-width:1;" x1="368.5244" x2="1006.053" y1="377.5938" y2="377.5938"/><text fill="#333333" font-family="Arial" font-size="11" lengthAdjust="spacing" textLength="126.6021" x="375.5244" y="372.9995">Save request envelope</text></g><g class="message" data-entity-1="part3" data-entity-2="part5" id="msg9"><polygon fill="#4A90D9" points="613.2566,400.3984,623.2566,404.3984,613.2566,408.3984,617.2566,404.3984" style="stroke:#4A90D9;stroke-width:1;"/><line style="stroke:#4A90D9;stroke-width:1;" x1="368.5244" x2="619.2566" y1="404.3984" y2="404.3984"/><text fill="#333333" font-family="Arial" font-size="11" lengthAdjust="spacing" textLength="145.562" x="375.5244" y="399.8042">Enqueue orchestration job</text></g><g class="message" data-entity-1="part5" data-entity-2="part6" id="msg10"><polygon fill="#4A90D9" points="755.0823,427.2031,765.0823,431.2031,755.0823,435.2031,759.0823,431.2031" style="stroke:#4A90D9;stroke-width:1;"/><line style="stroke:#4A90D9;stroke-width:1;" x1="625.2566" x2="761.0823" y1="431.2031" y2="431.2031"/><text fill="#333333" font-family="Arial" font-size="11" lengthAdjust="spacing" textLength="117.8257" x="632.2566" y="426.6089">Deliver compute task</text></g><path d="M710.8252,446.2031 L787.4492,446.2031 L787.4492,453.3359 L777.4492,463.3359 L710.8252,463.3359 L710.8252,446.2031" fill="#FAFAFA" style="stroke:#555555;stroke-width:1.5;"/><rect fill="none" height="83.875" style="stroke:#A0AEC0;stroke-width:1.5;" width="347.7244" x="710.8252" y="446.2031"/><text fill="#000000" font-family="Arial" font-size="13" font-weight="bold" lengthAdjust="spacing" textLength="31.624" x="725.8252" y="459.27">loop</text><text fill="#1A1A2E" font-family="Arial" font-size="13" font-weight="bold" lengthAdjust="spacing" textLength="241.2744" x="802.4492" y="460.27">[until all data sources are ready]</text><g class="message" data-entity-1="part6" data-entity-2="part8" id="msg11"><polygon fill="#4A90D9" points="1000.053,478.2734,1010.053,482.2734,1000.053,486.2734,1004.053,482.2734" style="stroke:#4A90D9;stroke-width:1;"/><line style="stroke:#4A90D9;stroke-width:1;" x1="767.0823" x2="1006.053" y1="482.2734" y2="482.2734"/><text fill="#333333" font-family="Arial" font-size="11" lengthAdjust="spacing" textLength="117.6431" x="774.0823" y="477.6792">Fetch latest positions</text></g><g class="message" data-entity-1="part6" data-entity-2="part6" id="msg12"><line style="stroke:#4A90D9;stroke-width:1;" x1="767.0823" x2="809.0823" y1="509.0781" y2="509.0781"/><line style="stroke:#4A90D9;stroke-width:1;" x1="809.0823" x2="809.0823" y1="509.0781" y2="522.0781"/><line style="stroke:#4A90D9;stroke-width:1;" x1="768.0823" x2="809.0823" y1="522.0781" y2="522.0781"/><polygon fill="#4A90D9" points="778.0823,518.0781,768.0823,522.0781,778.0823,526.0781,774.0823,522.0781" style="stroke:#4A90D9;stroke-width:1;"/><text fill="#333333" font-family="Arial" font-size="11" lengthAdjust="spacing" textLength="144.4824" x="774.0823" y="504.4839">Normalize prompt context</text></g><g class="message" data-entity-1="part6" data-entity-2="part7" id="msg13"><polygon fill="#4A90D9" points="916.6145,551.8828,926.6145,555.8828,916.6145,559.8828,920.6145,555.8828" style="stroke:#4A90D9;stroke-width:1;"/><line style="stroke:#4A90D9;stroke-width:1;" x1="767.0823" x2="922.6145" y1="555.8828" y2="555.8828"/><text fill="#333333" font-family="Arial" font-size="11" lengthAdjust="spacing" textLength="137.5322" x="774.0823" y="551.2886">Request plan + rationale</text></g><g class="message" data-entity-1="part7" data-entity-2="part6" id="msg14"><polygon fill="#4A90D9" points="778.0823,578.6875,768.0823,582.6875,778.0823,586.6875,774.0823,582.6875" style="stroke:#4A90D9;stroke-width:1;"/><line style="stroke:#4A90D9;stroke-width:1;stroke-dasharray:2,2;" x1="772.0823" x2="927.6145" y1="582.6875" y2="582.6875"/><text fill="#333333" font-family="Arial" font-size="11" lengthAdjust="spacing" textLength="112.0947" x="784.0823" y="578.0933">Structured response</text></g><g class="message" data-entity-1="part6" data-entity-2="part8" id="msg15"><polygon fill="#4A90D9" points="1000.053,605.4922,1010.053,609.4922,1000.053,613.4922,1004.053,609.4922" style="stroke:#4A90D9;stroke-width:1;"/><line style="stroke:#4A90D9;stroke-width:1;" x1="767.0823" x2="1006.053" y1="609.4922" y2="609.4922"/><text fill="#333333" font-family="Arial" font-size="11" lengthAdjust="spacing" textLength="170.0112" x="774.0823" y="604.8979">Persist answer and diagnostics</text></g><g class="message" data-entity-1="part6" data-entity-2="part9" id="msg16"><polygon fill="#4A90D9" points="1082.0728,632.2969,1092.0728,636.2969,1082.0728,640.2969,1086.0728,636.2969" style="stroke:#4A90D9;stroke-width:1;"/><line style="stroke:#4A90D9;stroke-width:1;" x1="767.0823" x2="1088.0728" y1="636.2969" y2="636.2969"/><text fill="#333333" font-family="Arial" font-size="11" lengthAdjust="spacing" textLength="142.9463" x="774.0823" y="631.7026">Emit completion webhook</text></g><g class="message" data-entity-1="part9" data-entity-2="part2" id="msg17"><polygon fill="#4A90D9" points="230.1738,659.1016,220.1738,663.1016,230.1738,667.1016,226.1738,663.1016" style="stroke:#4A90D9;stroke-width:1;"/><line style="stroke:#4A90D9;stroke-width:1;stroke-dasharray:2,2;" x1="224.1738" x2="1093.0728" y1="663.1016" y2="663.1016"/><text fill="#333333" font-family="Arial" font-size="11" lengthAdjust="spacing" textLength="134.3149" x="236.1738" y="658.5073">Push refresh notification</text></g><g class="message" data-entity-1="part2" data-entity-2="part3" id="msg18"><polygon fill="#4A90D9" points="356.5244,685.9063,366.5244,689.9063,356.5244,693.9063,360.5244,689.9063" style="stroke:#4A90D9;stroke-width:1;"/><line style="stroke:#4A90D9;stroke-width:1;" x1="219.1738" x2="362.5244" y1="689.9063" y2="689.9063"/><text fill="#333333" font-family="Arial" font-size="11" lengthAdjust="spacing" textLength="125.3506" x="226.1738" y="685.312">GET /v1/ai/requests/:id</text></g><g class="message" data-entity-1="part3" data-entity-2="part8" id="msg19"><polygon fill="#4A90D9" points="1000.053,712.7109,1010.053,716.7109,1000.053,720.7109,1004.053,716.7109" style="stroke:#4A90D9;stroke-width:1;"/><line style="stroke:#4A90D9;stroke-width:1;" x1="368.5244" x2="1006.053" y1="716.7109" y2="716.7109"/><text fill="#333333" font-family="Arial" font-size="11" lengthAdjust="spacing" textLength="121.1343" x="375.5244" y="712.1167">Read finalized answer</text></g><g class="message" data-entity-1="part8" data-entity-2="part3" id="msg20"><polygon fill="#4A90D9" points="379.5244,739.5156,369.5244,743.5156,379.5244,747.5156,375.5244,743.5156" style="stroke:#4A90D9;stroke-width:1;"/><line style="stroke:#4A90D9;stroke-width:1;stroke-dasharray:2,2;" x1="373.5244" x2="1011.053" y1="743.5156" y2="743.5156"/><text fill="#333333" font-family="Arial" font-size="11" lengthAdjust="spacing" textLength="85.1157" x="385.5244" y="738.9214">Answer + trace</text></g><g class="message" data-entity-1="part3" data-entity-2="part2" id="msg21"><polygon fill="#4A90D9" points="230.1738,766.3203,220.1738,770.3203,230.1738,774.3203,226.1738,770.3203" style="stroke:#4A90D9;stroke-width:1;"/><line style="stroke:#4A90D9;stroke-width:1;stroke-dasharray:2,2;" x1="224.1738" x2="367.5244" y1="770.3203" y2="770.3203"/><text fill="#333333" font-family="Arial" font-size="11" lengthAdjust="spacing" textLength="123.6318" x="236.1738" y="765.7261">Return enriched result</text></g><g class="message" data-entity-1="part2" data-entity-2="part1" id="msg22"><polygon fill="#4A90D9" points="55.4233,793.125,45.4233,797.125,55.4233,801.125,51.4233,797.125" style="stroke:#4A90D9;stroke-width:1;"/><line style="stroke:#4A90D9;stroke-width:1;stroke-dasharray:2,2;" x1="49.4233" x2="218.1738" y1="797.125" y2="797.125"/><text fill="#333333" font-family="Arial" font-size="11" lengthAdjust="spacing" textLength="135.0132" x="61.4233" y="792.5308">Reveal recommendation</text></g><?plantuml-src ZLJRKjim47ttL-oaZmoJ6-4s33DEi1awb0R2b6V5NeWQMN8bEP0o_VUk92V48PdMUR2aFJgxU_Ou5yOk1Lv6MYaBxn50ggIzOmL2h3aJzS64_qRezcatPDdyHQjAvYCbb8OlQUn-5Bdb4kkpWN-YFv7bLk2QDh0ShtOkCKoLoEk3-d8txiQzX2uphTMhlxn1VHIVTQxEcZVw_caawRhxcQNeUrtqzMRHdTEZtidmtyofVuYhPDhoZ9TCsjsCIP8UfV_1kEukPvPDcS7TT9IrdtIQTEaWFkxrzz3zgh3QnzLF1kcWoNMI34v6lJrSRhxb7gxJT4Y2DBZYJfoCEdkuBjgrmO8LuXjuGAhLM9YujymmgWVrg5cEkg5qwmcd49Tb2vW1MZU3yVW6hfd5LxRq0Df_gDeQiMo6_jolQe5QNzKKxjtIX_ngAwNISzGmLag4j7xVnFn0RV6Dcl68Rof7iPbPg2g7oVsjZruDjweMT1c6oeQQtIwAGkzmUEcwX7EOLDE2Mp0PIgQvWWCmou8-5HEvEC5Sx-Sm_ZvvXFQYssQyhOEi9d8XGlYk2NEhr9ocgP6uB31fNgcRY0aBcKFaBgAA0YKrm9K4VEEE1Mg2mtMo9wOB0fjIIUho00gqp3LDK9zoNVm3safB1wqe2vV6KkDYIJXVFE7gTXrKkaMpX0W59P28kGcHihAuew2mBxWngn8kIMsd7biWr7e0oWKALU87nW-TO8aCdb2QU8pLeV-VQahGW74j1JkSmnKAlg1LNGzOPkO454gLK4dB1J0Xm0a2HbKwGmDCkp9Oxbg75TEgo1HjDWD1_gKYIsMuoswsaEliTqeNJBY_jb9J0JGy-jRmpHAUP8isxtWxUcs30ALWaiOLscF22H4WXvi99bPN6StD6oBCEFfKynYr8NVKBg9N3ZbdBr8PyhTfu8FDIMJdOwUPG2_lAqvdv4Wt3O_uiCsuCZFA_KpfPo2LvSyy2tweZREQ-tNooVJjSvvlcU21X8TdBhrg-Shuu88V5ef38mT0qyzmdvDHQbv_AixIkusyG2O-6LdcVm40?></g></svg>