<?xml version="1.0" encoding="UTF-8" standalone="no"?>
<!DOCTYPE svg PUBLIC "-//W3C//DTD SVG 1.1//EN"
 "http://www.w3.org/Graphics/SVG/1.1/DTD/svg11.dtd">
<!-- Generated by graphviz version 9.0.0 (20230911.1827)
 -->
<!-- Pages: 1 -->
<svg width="1078pt" height="374pt"
 viewBox="0.00 0.00 1078.00 373.75" xmlns="http://www.w3.org/2000/svg" xmlns:xlink="http://www.w3.org/1999/xlink">
<g id="graph0" class="graph" transform="scale(1 1) rotate(0) translate(4 369.75)">
<polygon fill="white" stroke="none" points="-4,4 -4,-369.75 1074,-369.75 1074,4 -4,4"/>
<!-- Users -->
<g id="node1" class="node">
<title>Users</title>
<polygon fill="none" stroke="black" points="8,-207.38 8,-236.88 105,-236.88 105,-207.38 8,-207.38"/>
<text text-anchor="start" x="31" y="-217.68" font-family="Helvetica,sans-Serif" font-weight="bold" font-size="16.00">Users</text>
<polygon fill="none" stroke="black" points="8,-180.12 8,-207.38 105,-207.38 105,-180.12 8,-180.12"/>
<text text-anchor="start" x="13" y="-190.07" font-family="Helvetica,sans-Serif" text-decoration="underline" font-size="14.00">id</text>
<text text-anchor="start" x="25.75" y="-190.07" font-family="Helvetica,sans-Serif" font-size="14.00"> [UUID]</text>
<polygon fill="none" stroke="black" points="8,-152.88 8,-180.12 105,-180.12 105,-152.88 8,-152.88"/>
<text text-anchor="start" x="13" y="-162.82" font-family="Helvetica,sans-Serif" font-size="14.00">email</text>
<text text-anchor="start" x="50.5" y="-162.82" font-family="Helvetica,sans-Serif" font-size="14.00"> [TEXT]</text>
<polygon fill="none" stroke="black" points="8,-125.62 8,-152.88 105,-152.88 105,-125.62 8,-125.62"/>
<text text-anchor="start" x="13" y="-135.57" font-family="Helvetica,sans-Serif" font-size="14.00">tier</text>
<text text-anchor="start" x="36.25" y="-135.57" font-family="Helvetica,sans-Serif" font-size="14.00"> [TEXT]</text>
</g>
<!-- Portfolios -->
<g id="node2" class="node">
<title>Portfolios</title>
<polygon fill="none" stroke="black" points="194,-221 194,-250.5 316.5,-250.5 316.5,-221 194,-221"/>
<text text-anchor="start" x="211" y="-231.3" font-family="Helvetica,sans-Serif" font-weight="bold" font-size="16.00">Portfolios</text>
<polygon fill="none" stroke="black" points="194,-193.75 194,-221 316.5,-221 316.5,-193.75 194,-193.75"/>
<text text-anchor="start" x="199" y="-203.7" font-family="Helvetica,sans-Serif" text-decoration="underline" font-size="14.00">id</text>
<text text-anchor="start" x="211.75" y="-203.7" font-family="Helvetica,sans-Serif" font-size="14.00"> [UUID]</text>
<polygon fill="none" stroke="black" points="194,-166.5 194,-193.75 316.5,-193.75 316.5,-166.5 194,-166.5"/>
<text text-anchor="start" x="199" y="-176.45" font-family="Helvetica,sans-Serif" font-size="14.00">user_id</text>
<text text-anchor="start" x="249.25" y="-176.45" font-family="Helvetica,sans-Serif" font-size="14.00"> [UUID]</text>
<polygon fill="none" stroke="black" points="194,-139.25 194,-166.5 316.5,-166.5 316.5,-139.25 194,-139.25"/>
<text text-anchor="start" x="199" y="-149.2" font-family="Helvetica,sans-Serif" font-size="14.00">mandate</text>
<text text-anchor="start" x="260.5" y="-149.2" font-family="Helvetica,sans-Serif" font-size="14.00"> [TEXT]</text>
<polygon fill="none" stroke="black" points="194,-112 194,-139.25 316.5,-139.25 316.5,-112 194,-112"/>
<text text-anchor="start" x="199" y="-121.95" font-family="Helvetica,sans-Serif" font-size="14.00">base_ccy</text>
<text text-anchor="start" x="262" y="-121.95" font-family="Helvetica,sans-Serif" font-size="14.00"> [TEXT]</text>
</g>
<!-- Users&#45;&#45;Portfolios -->
<g id="edge1" class="edge">
<title>Users&#45;&#45;Portfolios</title>
<path fill="none" stroke="#7f7f7f" stroke-dasharray="5,2" d="M112.83,-181.25C135.56,-181.25 162.11,-181.25 186.03,-181.25"/>
<text text-anchor="start" x="156.03" y="-167.95" font-family="Times,serif" font-size="14.00">0..N</text>
<text text-anchor="start" x="112.83" y="-167.95" font-family="Times,serif" font-size="14.00">1</text>
</g>
<!-- BrokerAccounts -->
<g id="node3" class="node">
<title>BrokerAccounts</title>
<polygon fill="none" stroke="black" points="416,-310 416,-339.5 570,-339.5 570,-310 416,-310"/>
<text text-anchor="start" x="421" y="-320.3" font-family="Helvetica,sans-Serif" font-weight="bold" font-size="16.00">BrokerAccounts</text>
<polygon fill="none" stroke="black" points="416,-282.75 416,-310 570,-310 570,-282.75 416,-282.75"/>
<text text-anchor="start" x="421" y="-292.7" font-family="Helvetica,sans-Serif" text-decoration="underline" font-size="14.00">id</text>
<text text-anchor="start" x="433.75" y="-292.7" font-family="Helvetica,sans-Serif" font-size="14.00"> [UUID]</text>
<polygon fill="none" stroke="black" points="416,-255.5 416,-282.75 570,-282.75 570,-255.5 416,-255.5"/>
<text text-anchor="start" x="421" y="-265.45" font-family="Helvetica,sans-Serif" font-size="14.00">portfolio_id</text>
<text text-anchor="start" x="498.25" y="-265.45" font-family="Helvetica,sans-Serif" font-size="14.00"> [UUID]</text>
<polygon fill="none" stroke="black" points="416,-228.25 416,-255.5 570,-255.5 570,-228.25 416,-228.25"/>
<text text-anchor="start" x="421" y="-238.2" font-family="Helvetica,sans-Serif" font-size="14.00">venue</text>
<text text-anchor="start" x="463.75" y="-238.2" font-family="Helvetica,sans-Serif" font-size="14.00"> [TEXT]</text>
<polygon fill="none" stroke="black" points="416,-201 416,-228.25 570,-228.25 570,-201 416,-201"/>
<text text-anchor="start" x="421" y="-210.95" font-family="Helvetica,sans-Serif" font-size="14.00">account_ref</text>
<text text-anchor="start" x="501.25" y="-210.95" font-family="Helvetica,sans-Serif" font-size="14.00"> [TEXT]</text>
</g>
<!-- Portfolios&#45;&#45;BrokerAccounts -->
<g id="edge2" class="edge">
<title>Portfolios&#45;&#45;BrokerAccounts</title>
<path fill="none" stroke="#7f7f7f" stroke-dasharray="5,2" d="M324.44,-206.99C350.55,-216.85 380.64,-228.21 408.05,-238.56"/>
<text text-anchor="start" x="378.05" y="-225.26" font-family="Times,serif" font-size="14.00">0..N</text>
<text text-anchor="start" x="324.44" y="-193.69" font-family="Times,serif" font-size="14.00">1</text>
</g>
<!-- StrategyRuns -->
<g id="node4" class="node">
<title>StrategyRuns</title>
<polygon fill="none" stroke="black" points="405.5,-145.62 405.5,-175.12 580.5,-175.12 580.5,-145.62 405.5,-145.62"/>
<text text-anchor="start" x="432.25" y="-155.93" font-family="Helvetica,sans-Serif" font-weight="bold" font-size="16.00">StrategyRuns</text>
<polygon fill="none" stroke="black" points="405.5,-118.38 405.5,-145.62 580.5,-145.62 580.5,-118.38 405.5,-118.38"/>
<text text-anchor="start" x="410.5" y="-128.32" font-family="Helvetica,sans-Serif" text-decoration="underline" font-size="14.00">id</text>
<text text-anchor="start" x="423.25" y="-128.32" font-family="Helvetica,sans-Serif" font-size="14.00"> [UUID]</text>
<polygon fill="none" stroke="black" points="405.5,-91.12 405.5,-118.38 580.5,-118.38 580.5,-91.12 405.5,-91.12"/>
<text text-anchor="start" x="410.5" y="-101.08" font-family="Helvetica,sans-Serif" font-size="14.00">portfolio_id</text>
<text text-anchor="start" x="487.75" y="-101.08" font-family="Helvetica,sans-Serif" font-size="14.00"> [UUID]</text>
<polygon fill="none" stroke="black" points="405.5,-63.88 405.5,-91.12 580.5,-91.12 580.5,-63.88 405.5,-63.88"/>
<text text-anchor="start" x="410.5" y="-73.83" font-family="Helvetica,sans-Serif" font-size="14.00">prompt_id</text>
<text text-anchor="start" x="480.25" y="-73.83" font-family="Helvetica,sans-Serif" font-size="14.00"> [UUID]</text>
<polygon fill="none" stroke="black" points="405.5,-36.62 405.5,-63.88 580.5,-63.88 580.5,-36.62 405.5,-36.62"/>
<text text-anchor="start" x="410.5" y="-46.58" font-family="Helvetica,sans-Serif" font-size="14.00">status</text>
<text text-anchor="start" x="453.25" y="-46.58" font-family="Helvetica,sans-Serif" font-size="14.00"> [TEXT]</text>
<polygon fill="none" stroke="black" points="405.5,-9.38 405.5,-36.62 580.5,-36.62 580.5,-9.38 405.5,-9.38"/>
<text text-anchor="start" x="410.5" y="-19.32" font-family="Helvetica,sans-Serif" font-size="14.00">started_at</text>
<text text-anchor="start" x="480.25" y="-19.32" font-family="Helvetica,sans-Serif" font-size="14.00"> [TIMESTAMP]</text>
</g>
<!-- Portfolios&#45;&#45;StrategyRuns -->
<g id="edge3" class="edge">
<title>Portfolios&#45;&#45;StrategyRuns</title>
<path fill="none" stroke="#7f7f7f" stroke-dasharray="5,2" d="M324.44,-155.51C347.28,-146.88 373.18,-137.11 397.66,-127.86"/>
<text text-anchor="start" x="367.66" y="-114.56" font-family="Times,serif" font-size="14.00">0..N</text>
<text text-anchor="start" x="324.44" y="-142.21" font-family="Times,serif" font-size="14.00">1</text>
</g>
<!-- Orders -->
<g id="node5" class="node">
<title>Orders</title>
<polygon fill="none" stroke="black" points="669.5,-332.25 669.5,-361.75 855.75,-361.75 855.75,-332.25 669.5,-332.25"/>
<text text-anchor="start" x="731.88" y="-342.55" font-family="Helvetica,sans-Serif" font-weight="bold" font-size="16.00">Orders</text>
<polygon fill="none" stroke="black" points="669.5,-305 669.5,-332.25 855.75,-332.25 855.75,-305 669.5,-305"/>
<text text-anchor="start" x="674.5" y="-314.95" font-family="Helvetica,sans-Serif" text-decoration="underline" font-size="14.00">id</text>
<text text-anchor="start" x="687.25" y="-314.95" font-family="Helvetica,sans-Serif" font-size="14.00"> [UUID]</text>
<polygon fill="none" stroke="black" points="669.5,-277.75 669.5,-305 855.75,-305 855.75,-277.75 669.5,-277.75"/>
<text text-anchor="start" x="674.5" y="-287.7" font-family="Helvetica,sans-Serif" font-size="14.00">strategy_run_id</text>
<text text-anchor="start" x="782.5" y="-287.7" font-family="Helvetica,sans-Serif" font-size="14.00"> [UUID]</text>
<polygon fill="none" stroke="black" points="669.5,-250.5 669.5,-277.75 855.75,-277.75 855.75,-250.5 669.5,-250.5"/>
<text text-anchor="start" x="674.5" y="-260.45" font-family="Helvetica,sans-Serif" font-size="14.00">broker_account_id</text>
<text text-anchor="start" x="799.75" y="-260.45" font-family="Helvetica,sans-Serif" font-size="14.00"> [UUID]</text>
<polygon fill="none" stroke="black" points="669.5,-223.25 669.5,-250.5 855.75,-250.5 855.75,-223.25 669.5,-223.25"/>
<text text-anchor="start" x="674.5" y="-233.2" font-family="Helvetica,sans-Serif" font-size="14.00">symbol</text>
<text text-anchor="start" x="724.75" y="-233.2" font-family="Helvetica,sans-Serif" font-size="14.00"> [TEXT]</text>
<polygon fill="none" stroke="black" points="669.5,-196 669.5,-223.25 855.75,-223.25 855.75,-196 669.5,-196"/>
<text text-anchor="start" x="674.5" y="-205.95" font-family="Helvetica,sans-Serif" font-size="14.00">side</text>
<text text-anchor="start" x="703" y="-205.95" font-family="Helvetica,sans-Serif" font-size="14.00"> [TEXT]</text>
<polygon fill="none" stroke="black" points="669.5,-168.75 669.5,-196 855.75,-196 855.75,-168.75 669.5,-168.75"/>
<text text-anchor="start" x="674.5" y="-178.7" font-family="Helvetica,sans-Serif" font-size="14.00">status</text>
<text text-anchor="start" x="717.25" y="-178.7" font-family="Helvetica,sans-Serif" font-size="14.00"> [TEXT]</text>
</g>
<!-- StrategyRuns&#45;&#45;Orders -->
<g id="edge4" class="edge">
<title>StrategyRuns&#45;&#45;Orders</title>
<path fill="none" stroke="#7f7f7f" stroke-dasharray="5,2" d="M588.35,-153.24C612.13,-168.61 637.73,-185.16 661.77,-200.7"/>
<text text-anchor="start" x="631.77" y="-187.4" font-family="Times,serif" font-size="14.00">0..N</text>
<text text-anchor="start" x="588.35" y="-139.94" font-family="Times,serif" font-size="14.00">1</text>
</g>
<!-- Alerts -->
<g id="node7" class="node">
<title>Alerts</title>
<polygon fill="none" stroke="black" points="678.12,-113 678.12,-142.5 847.12,-142.5 847.12,-113 678.12,-113"/>
<text text-anchor="start" x="735.62" y="-123.3" font-family="Helvetica,sans-Serif" font-weight="bold" font-size="16.00">Alerts</text>
<polygon fill="none" stroke="black" points="678.12,-85.75 678.12,-113 847.12,-113 847.12,-85.75 678.12,-85.75"/>
<text text-anchor="start" x="683.12" y="-95.7" font-family="Helvetica,sans-Serif" text-decoration="underline" font-size="14.00">id</text>
<text text-anchor="start" x="695.88" y="-95.7" font-family="Helvetica,sans-Serif" font-size="14.00"> [UUID]</text>
<polygon fill="none" stroke="black" points="678.12,-58.5 678.12,-85.75 847.12,-85.75 847.12,-58.5 678.12,-58.5"/>
<text text-anchor="start" x="683.12" y="-68.45" font-family="Helvetica,sans-Serif" font-size="14.00">strategy_run_id</text>
<text text-anchor="start" x="791.12" y="-68.45" font-family="Helvetica,sans-Serif" font-size="14.00"> [UUID]</text>
<polygon fill="none" stroke="black" points="678.12,-31.25 678.12,-58.5 847.12,-58.5 847.12,-31.25 678.12,-31.25"/>
<text text-anchor="start" x="683.12" y="-41.2" font-family="Helvetica,sans-Serif" font-size="14.00">severity</text>
<text text-anchor="start" x="738.62" y="-41.2" font-family="Helvetica,sans-Serif" font-size="14.00"> [TEXT]</text>
<polygon fill="none" stroke="black" points="678.12,-4 678.12,-31.25 847.12,-31.25 847.12,-4 678.12,-4"/>
<text text-anchor="start" x="683.12" y="-13.95" font-family="Helvetica,sans-Serif" font-size="14.00">channel</text>
<text text-anchor="start" x="737.88" y="-13.95" font-family="Helvetica,sans-Serif" font-size="14.00"> [TEXT]</text>
</g>
<!-- StrategyRuns&#45;&#45;Alerts -->
<g id="edge6" class="edge">
<title>StrategyRuns&#45;&#45;Alerts</title>
<path fill="none" stroke="#7f7f7f" stroke-dasharray="5,2" d="M588.35,-85.55C614.99,-83.66 643.92,-81.61 670.37,-79.73"/>
<text text-anchor="start" x="640.37" y="-66.43" font-family="Times,serif" font-size="14.00">0..N</text>
<text text-anchor="start" x="588.35" y="-72.25" font-family="Times,serif" font-size="14.00">1</text>
</g>
<!-- Fills -->
<g id="node6" class="node">
<title>Fills</title>
<polygon fill="none" stroke="black" points="944.75,-305 944.75,-334.5 1062,-334.5 1062,-305 944.75,-305"/>
<text text-anchor="start" x="985" y="-315.3" font-family="Helvetica,sans-Serif" font-weight="bold" font-size="16.00">Fills</text>
<polygon fill="none" stroke="black" points="944.75,-277.75 944.75,-305 1062,-305 1062,-277.75 944.75,-277.75"/>
<text text-anchor="start" x="949.75" y="-287.7" font-family="Helvetica,sans-Serif" text-decoration="underline" font-size="14.00">id</text>
<text text-anchor="start" x="962.5" y="-287.7" font-family="Helvetica,sans-Serif" font-size="14.00"> [UUID]</text>
<polygon fill="none" stroke="black" points="944.75,-250.5 944.75,-277.75 1062,-277.75 1062,-250.5 944.75,-250.5"/>
<text text-anchor="start" x="949.75" y="-260.45" font-family="Helvetica,sans-Serif" font-size="14.00">order_id</text>
<text text-anchor="start" x="1006" y="-260.45" font-family="Helvetica,sans-Serif" font-size="14.00"> [UUID]</text>
<polygon fill="none" stroke="black" points="944.75,-223.25 944.75,-250.5 1062,-250.5 1062,-223.25 944.75,-223.25"/>
<text text-anchor="start" x="949.75" y="-233.2" font-family="Helvetica,sans-Serif" font-size="14.00">qty</text>
<text text-anchor="start" x="972.25" y="-233.2" font-family="Helvetica,sans-Serif" font-size="14.00"> [NUMERIC]</text>
<polygon fill="none" stroke="black" points="944.75,-196 944.75,-223.25 1062,-223.25 1062,-196 944.75,-196"/>
<text text-anchor="start" x="949.75" y="-205.95" font-family="Helvetica,sans-Serif" font-size="14.00">px</text>
<text text-anchor="start" x="967" y="-205.95" font-family="Helvetica,sans-Serif" font-size="14.00"> [NUMERIC]</text>
</g>
<!-- Orders&#45;&#45;Fills -->
<g id="edge5" class="edge">
<title>Orders&#45;&#45;Fills</title>
<path fill="none" stroke="#7f7f7f" stroke-dasharray="5,2" d="M863.49,-265.25C888.28,-265.25 914.23,-265.25 936.89,-265.25"/>
<text text-anchor="start" x="906.89" y="-251.95" font-family="Times,serif" font-size="14.00">0..N</text>
<text text-anchor="start" x="863.49" y="-251.95" font-family="Times,serif" font-size="14.00">1</text>
</g>
</g>
</svg>
